<svg width="24" height="24" viewBox="0 0 24 24" fill="none" xmlns="http://www.w3.org/2000/svg">
<path d="M1.50171 3.00015H1.69015C2.60789 3.00015 3.40786 3.62475 3.63044 4.51508L4.00171 6.00015M4.00171 6.00015L6.12298 14.4852C6.34556 15.3756 7.14553 16.0002 8.06326 16.0002H17.9401C18.8579 16.0002 19.6578 15.3756 19.8804 14.4852L21.3804 8.48522C21.696 7.22293 20.7413 6.00015 19.4401 6.00015H4.00171Z" stroke="white" stroke-width="1.5" stroke-linecap="round" stroke-linejoin="round"/>
<path d="M6.50134 21.0001C7.32977 21.0001 8.00134 20.3285 8.00134 19.5001C8.00134 18.6717 7.32977 18.0001 6.50134 18.0001C5.67291 18.0001 5.00134 18.6717 5.00134 19.5001C5.00134 20.3285 5.67291 21.0001 6.50134 21.0001Z" stroke="white" stroke-width="1.5" stroke-linecap="round" stroke-linejoin="round"/>
<path d="M19.5016 21.0001C20.33 21.0001 21.0016 20.3285 21.0016 19.5001C21.0016 18.6717 20.33 18.0001 19.5016 18.0001C18.6732 18.0001 18.0016 18.6717 18.0016 19.5001C18.0016 20.3285 18.6732 21.0001 19.5016 21.0001Z" stroke="white" stroke-width="1.5" stroke-linecap="round" stroke-linejoin="round"/>
<path d="M11.0012 11.0001H15.0012" stroke="white" stroke-width="1.5" stroke-linecap="round" stroke-linejoin="round"/>
</svg>
