<svg width="24" height="24" viewBox="0 0 24 24" fill="none" xmlns="http://www.w3.org/2000/svg">
<path d="M1.50167 3.00015H1.69011C2.60785 3.00015 3.40782 3.62475 3.6304 4.51508L4.00167 6.00015M4.00167 6.00015L6.12294 14.4852C6.34552 15.3756 7.14549 16.0002 8.06322 16.0002H17.9401C18.8579 16.0002 19.6578 15.3756 19.8804 14.4852L21.3804 8.48522C21.696 7.22293 20.7413 6.00015 19.4401 6.00015H4.00167Z" stroke="black" stroke-width="1.5" stroke-linecap="round" stroke-linejoin="round"/>
<path d="M6.5013 21.0001C7.32973 21.0001 8.0013 20.3285 8.0013 19.5001C8.0013 18.6717 7.32973 18.0001 6.5013 18.0001C5.67287 18.0001 5.0013 18.6717 5.0013 19.5001C5.0013 20.3285 5.67287 21.0001 6.5013 21.0001Z" stroke="black" stroke-width="1.5" stroke-linecap="round" stroke-linejoin="round"/>
<path d="M19.5016 21.0001C20.33 21.0001 21.0016 20.3285 21.0016 19.5001C21.0016 18.6717 20.33 18.0001 19.5016 18.0001C18.6732 18.0001 18.0016 18.6717 18.0016 19.5001C18.0016 20.3285 18.6732 21.0001 19.5016 21.0001Z" stroke="black" stroke-width="1.5" stroke-linecap="round" stroke-linejoin="round"/>
<path d="M11.0012 11.0001H15.0012" stroke="black" stroke-width="1.5" stroke-linecap="round" stroke-linejoin="round"/>
</svg>
