<svg width="35" height="35" viewBox="0 0 35 35" fill="none" xmlns="http://www.w3.org/2000/svg">
<g clip-path="url(#clip0_16_48)">
<path d="M26.4339 20.8088C24.0012 20.8088 22.0221 22.7879 22.0221 25.2206C22.0221 27.6533 24.0012 29.6324 26.4339 29.6324C28.867 29.6324 30.8456 27.6533 30.8456 25.2206C30.8456 22.7879 28.8666 20.8088 26.4339 20.8088ZM26.4339 27.4265C25.2173 27.4265 24.228 26.4371 24.228 25.2206C24.228 24.0041 25.2173 23.0147 26.4339 23.0147C27.6504 23.0147 28.6398 24.0041 28.6398 25.2206C28.6398 26.4372 27.6504 27.4265 26.4339 27.4265Z" fill="white"/>
<path d="M11.3603 20.8088C8.92756 20.8088 6.94849 22.7879 6.94849 25.2206C6.94849 27.6533 8.92756 29.6324 11.3603 29.6324C13.793 29.6324 15.772 27.6533 15.772 25.2206C15.772 22.7879 13.793 20.8088 11.3603 20.8088ZM11.3603 27.4265C10.1437 27.4265 9.15437 26.4371 9.15437 25.2206C9.15437 24.0041 10.1437 23.0147 11.3603 23.0147C12.5764 23.0147 13.5662 24.0041 13.5662 25.2206C13.5662 26.4372 12.5768 27.4265 11.3603 27.4265Z" fill="white"/>
<path d="M29.4047 8.18091C29.2172 7.80849 28.836 7.57354 28.4191 7.57354H22.6102V9.77942H27.7389L30.7422 15.7529L32.7135 14.7617L29.4047 8.18091Z" fill="white"/>
<path d="M23.125 24.1544H14.7794V26.3603H23.125V24.1544Z" fill="white"/>
<path d="M8.05139 24.1544H4.22791C3.61869 24.1544 3.125 24.6482 3.125 25.2574C3.125 25.8666 3.61876 26.3603 4.22791 26.3603H8.05146C8.66067 26.3603 9.15437 25.8665 9.15437 25.2574C9.15437 24.6481 8.66061 24.1544 8.05139 24.1544Z" fill="white"/>
<path d="M34.7683 17.4117L32.5989 14.6176C32.3905 14.3485 32.0688 14.1911 31.7279 14.1911H23.7132V6.47056C23.7132 5.86134 23.2194 5.36765 22.6103 5.36765H4.22791C3.61869 5.36765 3.125 5.8614 3.125 6.47056C3.125 7.07971 3.61876 7.57347 4.22791 7.57347H21.5073V15.294C21.5073 15.9033 22.0011 16.397 22.6102 16.397H31.1878L32.7941 18.4661V24.1543H29.7426C29.1334 24.1543 28.6397 24.6481 28.6397 25.2572C28.6397 25.8664 29.1334 26.3601 29.7426 26.3601H33.897C34.5062 26.3601 34.9999 25.8664 35 25.2572V18.0882C35 17.8434 34.9183 17.6051 34.7683 17.4117Z" fill="white"/>
<path d="M7.97799 18.5662H2.90442C2.29521 18.5662 1.80151 19.06 1.80151 19.6691C1.80151 20.2783 2.29527 20.772 2.90442 20.772H7.97792C8.58714 20.772 9.08083 20.2783 9.08083 19.6691C9.0809 19.06 8.58714 18.5662 7.97799 18.5662Z" fill="white"/>
<path d="M10.5147 14.2279H1.10291C0.49376 14.2279 0 14.7217 0 15.3309C0 15.9401 0.49376 16.4338 1.10291 16.4338H10.5147C11.1239 16.4338 11.6176 15.94 11.6176 15.3309C11.6176 14.7217 11.1239 14.2279 10.5147 14.2279Z" fill="white"/>
<path d="M12.3162 9.88969H2.90442C2.29521 9.88969 1.80151 10.3834 1.80151 10.9926C1.80151 11.6018 2.29527 12.0955 2.90442 12.0955H12.3162C12.9254 12.0955 13.4191 11.6017 13.4191 10.9926C13.4192 10.3834 12.9254 9.88969 12.3162 9.88969Z" fill="white"/>
</g>
<defs>
<clipPath id="clip0_16_48">
<rect width="35" height="35" fill="white"/>
</clipPath>
</defs>
</svg>
