<svg width="20" height="20" viewBox="0 0 20 20" fill="none" xmlns="http://www.w3.org/2000/svg">
<path d="M10 18.7891C9.86211 18.7891 9.72477 18.741 9.61434 18.6443C8.76176 17.8987 7.95094 17.2075 7.1882 16.5575C2.88348 12.8891 0 10.4652 0 6.93414C0 3.67141 2.30613 1.21094 5.3125 1.21094C7.68199 1.21094 9.20293 2.86633 10 4.35691C10.7971 2.86633 12.318 1.21094 14.6875 1.21094C17.6939 1.21094 20 3.67141 20 6.93414C20 10.4652 17.1165 12.8891 12.8118 16.5575C12.0491 17.2075 11.2382 17.8987 10.3857 18.6443C10.2752 18.741 10.1379 18.7891 10 18.7891Z" fill="#F2890C"/>
<path d="M10.3857 18.6443C11.2382 17.8987 12.0491 17.2075 12.8118 16.5575C17.1165 12.8891 20 10.4652 20 6.93414C20 3.67141 17.6939 1.21094 14.6875 1.21094C12.318 1.21094 10.7971 2.86633 10 4.35691V18.7891C10.1379 18.7891 10.2752 18.741 10.3857 18.6443Z" fill="#F2890C"/>
</svg>
