<svg width="30" height="35" viewBox="0 0 30 35" fill="none" xmlns="http://www.w3.org/2000/svg">
<g clip-path="url(#clip0_16_86)">
<path d="M14.9909 0C6.71823 0.00804228 0.014389 5.90691 0.00524902 13.1859C0.00524902 20.2876 13.9111 34.1902 14.503 34.7786C14.6264 34.9019 14.8046 34.9724 14.9917 34.9724C15.1784 34.9724 15.3565 34.9019 15.4804 34.7786C16.0705 34.1902 29.9767 20.2876 29.9767 13.1859C29.9671 5.90691 23.2632 0.00804228 14.9909 0ZM14.9909 33.5226C12.4973 30.9628 1.30851 19.1444 1.30851 13.1859C1.30851 6.53666 7.43409 1.14674 14.9909 1.14674C22.5475 1.14674 28.6736 6.53666 28.6736 13.1859C28.6736 19.1422 17.4841 30.9622 14.9909 33.5226Z" fill="white"/>
<path d="M14.9909 4.01323C9.5931 4.01323 5.21765 7.86334 5.21765 12.6127C5.21765 17.3621 9.5931 21.2124 14.9909 21.2124C20.3884 21.2124 24.7642 17.3621 24.7642 12.6127C24.7578 7.86577 20.3859 4.01841 14.9909 4.01323ZM14.9909 20.0656C10.313 20.0656 6.52073 16.7289 6.52073 12.6127C6.52073 8.4965 10.313 5.1597 14.9909 5.1597C19.6689 5.1597 23.4614 8.4965 23.4614 12.6127C23.4558 16.7268 19.6667 20.0609 14.9909 20.0656Z" fill="white"/>
</g>
<defs>
<clipPath id="clip0_16_86">
<rect width="30" height="35" fill="white"/>
</clipPath>
</defs>
</svg>
