<svg width="718" height="952" viewBox="0 0 718 952" fill="none" xmlns="http://www.w3.org/2000/svg">
<path d="M358.781 0C160.789 0.21875 0.34375 160.668 0.125 358.656C0.125 551.824 332.938 929.973 347.105 945.977C350.059 949.332 354.324 951.25 358.801 951.25C363.27 951.25 367.531 949.332 370.496 945.977C384.621 929.973 717.441 551.824 717.441 358.656C717.211 160.668 556.766 0.21875 358.781 0ZM358.781 911.816C299.102 842.188 31.3164 520.727 31.3164 358.656C31.3164 177.797 177.922 31.1914 358.781 31.1914C539.637 31.1914 686.254 177.797 686.254 358.656C686.254 520.668 418.453 842.172 358.781 911.816Z" fill="black"/>
<path d="M358.781 109.16C229.594 109.16 124.875 213.883 124.875 343.066C124.875 472.25 229.594 576.977 358.781 576.977C487.961 576.977 592.688 472.25 592.688 343.066C592.535 213.949 487.902 109.301 358.781 109.16ZM358.781 545.785C246.824 545.785 156.062 455.027 156.062 343.066C156.062 231.105 246.824 140.344 358.781 140.344C470.742 140.344 561.508 231.105 561.508 343.066C561.375 454.969 470.688 545.656 358.781 545.785Z" fill="black"/>
</svg>
