<svg width="20" height="20" viewBox="0 0 20 20" fill="none" xmlns="http://www.w3.org/2000/svg">
<path d="M6.99991 1H1.99991C1.44762 1 0.999908 1.44772 0.999908 2V7C0.999908 7.55228 1.44762 8 1.99991 8H6.99991C7.55219 8 7.99991 7.55228 7.99991 7V2C7.99991 1.44772 7.55219 1 6.99991 1Z" stroke="white" stroke-width="1.5" stroke-linejoin="round"/>
<path d="M6.99982 12H1.99982C1.44753 12 0.999817 12.4477 0.999817 13V18C0.999817 18.5523 1.44753 19 1.99982 19H6.99982C7.5521 19 7.99982 18.5523 7.99982 18V13C7.99982 12.4477 7.5521 12 6.99982 12Z" stroke="white" stroke-width="1.5" stroke-linejoin="round"/>
<path d="M17.9997 1H12.9997C12.4474 1 11.9997 1.44772 11.9997 2V7C11.9997 7.55228 12.4474 8 12.9997 8H17.9997C18.5519 8 18.9997 7.55228 18.9997 7V2C18.9997 1.44772 18.5519 1 17.9997 1Z" stroke="white" stroke-width="1.5" stroke-linejoin="round"/>
<path d="M17.9997 12H12.9997C12.4474 12 11.9997 12.4477 11.9997 13V18C11.9997 18.5523 12.4474 19 12.9997 19H17.9997C18.5519 19 18.9997 18.5523 18.9997 18V13C18.9997 12.4477 18.5519 12 17.9997 12Z" stroke="white" stroke-width="1.5" stroke-linejoin="round"/>
</svg>
