<svg width="20" height="20" viewBox="0 0 20 20" fill="none" xmlns="http://www.w3.org/2000/svg">
<g clip-path="url(#clip0_16_89)">
<path d="M7 1H2C1.44771 1 1 1.44772 1 2V7C1 7.55228 1.44771 8 2 8H7C7.55228 8 8 7.55228 8 7V2C8 1.44772 7.55228 1 7 1Z" stroke="white" stroke-width="1.5" stroke-linejoin="round"/>
<path d="M6.99976 12H1.99976C1.44747 12 0.999756 12.4477 0.999756 13V18C0.999756 18.5523 1.44747 19 1.99976 19H6.99976C7.55204 19 7.99976 18.5523 7.99976 18V13C7.99976 12.4477 7.55204 12 6.99976 12Z" stroke="white" stroke-width="1.5" stroke-linejoin="round"/>
<path d="M17.9998 1H12.9998C12.4475 1 11.9998 1.44772 11.9998 2V7C11.9998 7.55228 12.4475 8 12.9998 8H17.9998C18.552 8 18.9998 7.55228 18.9998 7V2C18.9998 1.44772 18.552 1 17.9998 1Z" stroke="white" stroke-width="1.5" stroke-linejoin="round"/>
<path d="M17.9998 12H12.9998C12.4475 12 11.9998 12.4477 11.9998 13V18C11.9998 18.5523 12.4475 19 12.9998 19H17.9998C18.552 19 18.9998 18.5523 18.9998 18V13C18.9998 12.4477 18.552 12 17.9998 12Z" stroke="white" stroke-width="1.5" stroke-linejoin="round"/>
</g>
<defs>
<clipPath id="clip0_16_89">
<rect width="20" height="20" fill="white"/>
</clipPath>
</defs>
</svg>
