<svg width="20" height="19" viewBox="0 0 20 19" fill="none" xmlns="http://www.w3.org/2000/svg">
<g clip-path="url(#clip0_16_98)">
<path d="M18.5408 2.00679C17.5543 0.82531 16.1859 0.17466 14.6875 0.17466C12.5802 0.17466 11.246 1.50317 10.4979 2.61769C10.3037 2.9069 10.1386 3.19689 10 3.46977C9.86137 3.19689 9.69629 2.9069 9.50215 2.61769C8.75402 1.50317 7.41984 0.17466 5.3125 0.17466C3.81414 0.17466 2.44566 0.825353 1.45918 2.00683C0.518242 3.13389 0 4.64333 0 6.25709C0 8.01372 0.649727 9.64756 2.04473 11.3988C3.29148 12.964 5.08512 14.5773 7.16211 16.4456C7.93605 17.1417 8.73641 17.8617 9.58848 18.6486L9.61406 18.6723C9.72453 18.7743 9.86227 18.8253 10 18.8253C10.1377 18.8253 10.2755 18.7743 10.3859 18.6723L10.4115 18.6486C11.2636 17.8617 12.0639 17.1418 12.838 16.4454C14.9149 14.5774 16.7085 12.964 17.9553 11.3988C19.3503 9.64753 20 8.01372 20 6.25709C20 4.64333 19.4818 3.13389 18.5408 2.00679ZM12.0779 15.504C11.4107 16.1042 10.724 16.7218 10 17.3862C9.27602 16.7219 8.58934 16.1042 7.92203 15.504C3.85723 11.8478 1.17188 9.43229 1.17188 6.25709C1.17188 4.94465 1.58613 3.72566 2.33836 2.82469C3.09922 1.91348 4.15543 1.41163 5.3125 1.41163C6.9191 1.41163 7.95766 2.45639 8.54594 3.33283C9.07363 4.11889 9.34898 4.9113 9.44289 5.21548C9.52145 5.47009 9.74633 5.6424 10 5.6424C10.2537 5.6424 10.4786 5.47009 10.5571 5.21548C10.651 4.9113 10.9264 4.11889 11.4541 3.33279C12.0423 2.45639 13.0809 1.41163 14.6875 1.41163C15.8446 1.41163 16.9008 1.91348 17.6616 2.82469C18.4139 3.72566 18.8281 4.94465 18.8281 6.25709C18.8281 9.43229 16.1428 11.8478 12.0779 15.504Z" fill="white"/>
</g>
<defs>
<clipPath id="clip0_16_98">
<rect width="20" height="19" fill="white"/>
</clipPath>
</defs>
</svg>
