<svg width="512" height="488" viewBox="0 0 512 488" fill="none" xmlns="http://www.w3.org/2000/svg">
<g clip-path="url(#clip0_4038_2905)">
<path d="M386.689 280.403C351.102 280.403 322.151 309.354 322.151 344.941C322.151 380.528 351.102 409.479 386.689 409.479C422.282 409.479 451.227 380.528 451.227 344.941C451.227 309.354 422.276 280.403 386.689 280.403ZM386.689 377.21C368.893 377.21 354.42 362.737 354.42 344.941C354.42 327.145 368.893 312.672 386.689 312.672C404.485 312.672 418.958 327.145 418.958 344.941C418.958 362.738 404.485 377.21 386.689 377.21Z" fill="black"/>
<path d="M166.185 280.403C130.598 280.403 101.647 309.354 101.647 344.941C101.647 380.528 130.598 409.479 166.185 409.479C201.772 409.479 230.723 380.528 230.723 344.941C230.723 309.354 201.772 280.403 166.185 280.403ZM166.185 377.21C148.389 377.21 133.916 362.737 133.916 344.941C133.916 327.145 148.389 312.672 166.185 312.672C183.976 312.672 198.454 327.145 198.454 344.941C198.454 362.738 183.981 377.21 166.185 377.21Z" fill="black"/>
<path d="M430.15 95.675C427.407 90.227 421.83 86.79 415.731 86.79H330.756V119.059H405.781L449.715 206.443L478.553 191.943L430.15 95.675Z" fill="black"/>
<path d="M338.286 329.345H216.202V361.614H338.286V329.345Z" fill="black"/>
<path d="M117.781 329.345H61.8491C52.9371 329.345 45.7151 336.568 45.7151 345.479C45.7151 354.391 52.9381 361.613 61.8491 361.613H117.782C126.694 361.613 133.916 354.39 133.916 345.479C133.916 336.567 126.693 329.345 117.781 329.345Z" fill="black"/>
<path d="M508.612 230.709L476.876 189.835C473.827 185.898 469.121 183.596 464.135 183.596H346.891V70.655C346.891 61.743 339.668 54.521 330.757 54.521H61.8491C52.9371 54.521 45.7151 61.744 45.7151 70.655C45.7151 79.566 52.9381 86.789 61.8491 86.789H314.622V199.73C314.622 208.642 321.845 215.864 330.756 215.864H456.234L479.731 246.132V329.343H435.092C426.18 329.343 418.958 336.566 418.958 345.477C418.958 354.389 426.181 361.611 435.092 361.611H495.865C504.777 361.611 511.999 354.388 512 345.477V240.605C512 237.023 510.806 233.538 508.612 230.709Z" fill="black"/>
<path d="M116.706 247.597H42.487C33.575 247.597 26.353 254.82 26.353 263.731C26.353 272.643 33.576 279.865 42.487 279.865H116.705C125.617 279.865 132.839 272.642 132.839 263.731C132.84 254.82 125.617 247.597 116.706 247.597Z" fill="black"/>
<path d="M153.815 184.134H16.134C7.223 184.134 0 191.357 0 200.269C0 209.181 7.223 216.403 16.134 216.403H153.815C162.727 216.403 169.949 209.18 169.949 200.269C169.949 191.358 162.727 184.134 153.815 184.134Z" fill="black"/>
<path d="M180.168 120.672H42.487C33.575 120.672 26.353 127.895 26.353 136.806C26.353 145.718 33.576 152.94 42.487 152.94H180.168C189.08 152.94 196.302 145.717 196.302 136.806C196.303 127.895 189.08 120.672 180.168 120.672Z" fill="black"/>
</g>
<defs>
<clipPath id="clip0_4038_2905">
<rect width="512" height="512" fill="white" transform="translate(0 -24)"/>
</clipPath>
</defs>
</svg>
