<svg width="35" height="37" viewBox="0 0 35 37" fill="none" xmlns="http://www.w3.org/2000/svg">
<g clip-path="url(#clip0_16_100)">
<mask id="mask0_16_100" style="mask-type:luminance" maskUnits="userSpaceOnUse" x="0" y="-2" width="35" height="39">
<path d="M35 -1.81967H0V37H35V-1.81967Z" fill="white"/>
</mask>
<g mask="url(#mask0_16_100)">
<path d="M26.4337 21.2601C24.001 21.2601 22.022 23.4551 22.022 26.1533C22.022 28.8515 24.001 31.0466 26.4337 31.0466C28.8669 31.0466 30.8455 28.8515 30.8455 26.1533C30.8455 23.4551 28.8665 21.2601 26.4337 21.2601ZM26.4337 28.5999C25.2172 28.5999 24.2279 27.5026 24.2279 26.1533C24.2279 24.804 25.2172 23.7067 26.4337 23.7067C27.6503 23.7067 28.6396 24.804 28.6396 26.1533C28.6396 27.5027 27.6503 28.5999 26.4337 28.5999Z" fill="white"/>
<path d="M11.3603 21.2601C8.92756 21.2601 6.94849 23.4551 6.94849 26.1533C6.94849 28.8515 8.92756 31.0466 11.3603 31.0466C13.793 31.0466 15.772 28.8515 15.772 26.1533C15.772 23.4551 13.793 21.2601 11.3603 21.2601ZM11.3603 28.5999C10.1437 28.5999 9.15437 27.5026 9.15437 26.1533C9.15437 24.804 10.1437 23.7067 11.3603 23.7067C12.5764 23.7067 13.5662 24.804 13.5662 26.1533C13.5662 27.5027 12.5768 28.5999 11.3603 28.5999Z" fill="white"/>
<path d="M29.4049 7.25405C29.2174 6.84098 28.8361 6.58039 28.4192 6.58039H22.6104V9.02702H27.739L30.7423 15.6524L32.7137 14.5531L29.4049 7.25405Z" fill="white"/>
<path d="M23.1251 24.9708H14.7795V27.4175H23.1251V24.9708Z" fill="white"/>
<path d="M8.05138 24.9708H4.22791C3.61869 24.9708 3.125 25.5185 3.125 26.1941C3.125 26.8698 3.61876 27.4174 4.22791 27.4174H8.05145C8.66067 27.4174 9.15436 26.8697 9.15436 26.1941C9.15436 25.5184 8.6606 24.9708 8.05138 24.9708Z" fill="white"/>
<path d="M34.7683 17.4923L32.5989 14.3932C32.3905 14.0947 32.0688 13.9202 31.7279 13.9202H23.7132V5.35704C23.7132 4.68134 23.2194 4.13377 22.6103 4.13377H4.22791C3.61869 4.13377 3.125 4.68141 3.125 5.35704C3.125 6.03267 3.61876 6.58032 4.22791 6.58032H21.5073V15.1435C21.5073 15.8192 22.0011 16.3667 22.6102 16.3667H31.1878L32.7941 18.6616V24.9707H29.7426C29.1333 24.9707 28.6397 25.5183 28.6397 26.194C28.6397 26.8697 29.1334 27.4172 29.7426 27.4172H33.897C34.5062 27.4172 34.9999 26.8696 34.9999 26.194V18.2426C34.9999 17.971 34.9183 17.7068 34.7683 17.4923Z" fill="white"/>
<path d="M7.97799 18.7727H2.90442C2.29521 18.7727 1.80151 19.3204 1.80151 19.996C1.80151 20.6717 2.29527 21.2193 2.90442 21.2193H7.97792C8.58714 21.2193 9.08083 20.6716 9.08083 19.996C9.0809 19.3204 8.58714 18.7727 7.97799 18.7727Z" fill="white"/>
<path d="M10.5147 13.961H1.10291C0.49376 13.961 0 14.5086 0 15.1843C0 15.86 0.49376 16.4076 1.10291 16.4076H10.5147C11.1239 16.4076 11.6176 15.86 11.6176 15.1843C11.6176 14.5087 11.1239 13.961 10.5147 13.961Z" fill="white"/>
<path d="M12.3162 9.14931H2.90442C2.29521 9.14931 1.80151 9.69696 1.80151 10.3726C1.80151 11.0483 2.29527 11.5959 2.90442 11.5959H12.3162C12.9254 11.5959 13.4191 11.0482 13.4191 10.3726C13.4192 9.69696 12.9254 9.14931 12.3162 9.14931Z" fill="white"/>
</g>
</g>
<defs>
<clipPath id="clip0_16_100">
<rect width="35" height="37" fill="white"/>
</clipPath>
</defs>
</svg>
