<svg width="512" height="512" viewBox="0 0 512 512" fill="none" xmlns="http://www.w3.org/2000/svg">
<path d="M487.104 24.954C453.83 -8.31499 399.975 -8.31898 366.697 24.954L51.948 339.665C49.85 341.762 48.114 344.49 47.117 347.482L1.05699 485.647C-4.14301 501.245 10.736 516.15 26.355 510.943L164.537 464.888C167.459 463.914 170.202 462.21 172.356 460.057L487.104 145.346C520.299 112.154 520.299 58.146 487.104 24.954ZM51.654 460.352L74.831 390.827L121.187 437.177L51.654 460.352ZM158.214 417.634L94.377 353.805L361.649 86.565L425.486 150.395L158.214 417.634ZM458.818 117.065L453.769 122.114L389.932 58.284L394.981 53.236C412.583 35.639 441.22 35.639 458.818 53.236C476.419 70.833 476.419 99.467 458.818 117.065Z" fill="#8C9293"/>
</svg>
