<svg width="35" height="37" viewBox="0 0 35 37" fill="none" xmlns="http://www.w3.org/2000/svg">
<g clip-path="url(#clip0_16_114)">
<path d="M33.2981 1.80331C31.0235 -0.600897 27.342 -0.601185 25.0671 1.80331L3.5511 24.5461C3.40768 24.6976 3.28901 24.8948 3.22086 25.111L0.0722217 35.0956C-0.283247 36.2228 0.733873 37.2999 1.80158 36.9236L11.2476 33.5954C11.4474 33.525 11.6349 33.4019 11.7821 33.2463L33.2981 10.5035C35.5673 8.10487 35.5673 4.20195 33.2981 1.80331ZM3.531 33.2676L5.11537 28.2433L8.28423 31.5929L3.531 33.2676ZM10.8154 30.1806L6.45152 25.5679L24.7221 6.25566L29.0859 10.8684L10.8154 30.1806ZM31.3645 8.45977L31.0193 8.82464L26.6555 4.21192L27.0006 3.84712C28.2039 2.57547 30.1615 2.57547 31.3645 3.84712C32.5677 5.11878 32.5677 7.18804 31.3645 8.45977Z" fill="white"/>
</g>
<defs>
<clipPath id="clip0_16_114">
<rect width="35" height="37" fill="white"/>
</clipPath>
</defs>
</svg>
