<svg width="13" height="13" viewBox="0 0 13 13" fill="none" xmlns="http://www.w3.org/2000/svg">
<path d="M4.58338 1.06982V1.06342L4.57421 1.07416L3.49875 2.33371H1.66672C1.34254 2.33371 1.06472 2.45891 0.833918 2.70894C0.603121 2.95897 0.487549 3.25995 0.487549 3.61113V11.1944C0.487549 11.5456 0.603121 11.8466 0.833918 12.0966C1.06472 12.3467 1.34254 12.4719 1.66672 12.4719H11C11.3242 12.4719 11.602 12.3467 11.8328 12.0966C12.0636 11.8466 12.1792 11.5456 12.1792 11.1944V3.61113C12.1792 3.25995 12.0636 2.95897 11.8328 2.70894C11.602 2.45891 11.3242 2.33371 11 2.33371H9.16802L8.09256 1.07416L8.0969 1.06982H8.08338H4.58338ZM8.62832 3.62026L8.62385 3.62467H8.63755H10.9875V11.1809H1.67922V3.62467H4.02922V3.63123L4.03845 3.62026L5.09932 2.36079H7.56745L8.62832 3.62026ZM6.33338 10.2601C7.06583 10.2601 7.68881 9.98221 8.2016 9.4267C8.71438 8.87118 8.97088 8.19629 8.97088 7.4028C8.97088 6.60932 8.71438 5.93443 8.2016 5.3789C7.68881 4.82338 7.06583 4.54551 6.33338 4.54551C5.60094 4.54551 4.97796 4.82338 4.46517 5.3789C3.95238 5.93443 3.69588 6.60932 3.69588 7.4028C3.69588 8.19629 3.95238 8.87118 4.46517 9.4267C4.97796 9.98221 5.60094 10.2601 6.33338 10.2601ZM6.33338 8.96913C5.92828 8.96913 5.58634 8.81776 5.30681 8.51493C5.02727 8.21209 4.88755 7.84167 4.88755 7.4028C4.88755 6.96394 5.02727 6.5935 5.30681 6.29068C5.58634 5.98785 5.92828 5.83648 6.33338 5.83648C6.73849 5.83648 7.08042 5.98785 7.35996 6.29068C7.6395 6.5935 7.77922 6.96394 7.77922 7.4028C7.77922 7.84167 7.6395 8.21209 7.35996 8.51493C7.08042 8.81776 6.73849 8.96913 6.33338 8.96913Z" fill="#F2890C" stroke="#F0F1FA" stroke-width="0.025"/>
</svg>
