<svg width="13" height="12" viewBox="0 0 13 12" fill="none" xmlns="http://www.w3.org/2000/svg">
<path d="M4.58333 0.9875V0.981592L4.57416 0.991512L3.4987 2.15417H1.66667C1.34249 2.15417 1.06467 2.26974 0.833869 2.50054C0.603072 2.73133 0.4875 3.00916 0.4875 3.33333V10.3333C0.4875 10.6575 0.603072 10.9353 0.833869 11.1661C1.06467 11.3969 1.34249 11.5125 1.66667 11.5125H11C11.3242 11.5125 11.602 11.3969 11.8328 11.1661C12.0636 10.9353 12.1792 10.6575 12.1792 10.3333V3.33333C12.1792 3.00916 12.0636 2.73133 11.8328 2.50054C11.602 2.26974 11.3242 2.15417 11 2.15417H9.16797L8.09251 0.991512L8.09685 0.9875H8.08333H4.58333ZM8.62827 3.34176L8.6238 3.34583H8.6375H10.9875V10.3208H1.67917V3.34583H4.02917V3.35188L4.0384 3.34176L5.09927 2.17917H7.5674L8.62827 3.34176ZM6.33333 9.47083C7.06578 9.47083 7.68876 9.21433 8.20155 8.70155C8.71433 8.18876 8.97083 7.56578 8.97083 6.83333C8.97083 6.10089 8.71433 5.47791 8.20155 4.96512C7.68876 4.45233 7.06578 4.19583 6.33333 4.19583C5.60089 4.19583 4.97791 4.45233 4.46512 4.96512C3.95233 5.47791 3.69583 6.10089 3.69583 6.83333C3.69583 7.56578 3.95233 8.18876 4.46512 8.70155C4.97791 9.21433 5.60089 9.47083 6.33333 9.47083ZM6.33333 8.27917C5.92823 8.27917 5.58629 8.13945 5.30676 7.85991C5.02722 7.58037 4.8875 7.23844 4.8875 6.83333C4.8875 6.42823 5.02722 6.08629 5.30676 5.80676C5.58629 5.52722 5.92823 5.3875 6.33333 5.3875C6.73844 5.3875 7.08037 5.52722 7.35991 5.80676C7.63945 6.08629 7.77917 6.42823 7.77917 6.83333C7.77917 7.23844 7.63945 7.58037 7.35991 7.85991C7.08037 8.13945 6.73844 8.27917 6.33333 8.27917Z" fill="#F2890C" stroke="#F0F1FA" stroke-width="0.025"/>
</svg>
