<svg width="35" height="37" viewBox="0 0 35 37" fill="none" xmlns="http://www.w3.org/2000/svg">
<path d="M17.2702 18.4314C21.7956 18.4314 25.4638 14.5555 25.4638 9.77423C25.4638 4.99322 21.7956 1.11707 17.2702 1.11707C12.7452 1.11707 9.07666 4.99322 9.07666 9.77423C9.08014 14.5539 12.7465 18.4277 17.2702 18.4314ZM17.2702 2.58435C21.0286 2.58435 24.0751 5.80322 24.0751 9.77423C24.0751 13.7452 21.0286 16.9641 17.2702 16.9641C13.5123 16.9641 10.4654 13.7452 10.4654 9.77423C10.4717 5.80621 13.5147 2.59078 17.2702 2.58435Z" fill="white"/>
<path d="M17.2703 20.5956C13.7084 20.5956 10.3961 22.0556 7.93822 24.7116C5.44533 27.4041 4.07727 31.0795 4.07727 35.0709C4.07836 35.4756 4.38875 35.8033 4.77173 35.8045H29.7691C30.1523 35.8033 30.4623 35.4756 30.4633 35.0709C30.4633 31.0871 29.0955 27.4041 26.6028 24.7189C24.1447 22.0629 20.8326 20.5956 17.2703 20.5956ZM5.4801 34.3372C5.63291 31.0212 6.84794 27.9911 8.92416 25.7459C11.1184 23.3761 14.0834 22.0705 17.2636 22.0705C20.4437 22.0705 23.4087 23.3761 25.6028 25.7459C27.6859 27.9911 28.8942 31.0212 29.047 34.3372H5.4801Z" fill="white"/>
</svg>
