<svg width="24" height="25" viewBox="0 0 24 25" fill="none" xmlns="http://www.w3.org/2000/svg">
<path d="M10.3636 3.125C8.90722 3.125 7.48354 3.57486 6.2726 4.4177C5.06167 5.26053 4.11786 6.45849 3.56052 7.86007C3.00319 9.26166 2.85737 10.804 3.14149 12.2919C3.42562 13.7798 4.12693 15.1465 5.15675 16.2192C6.18657 17.292 7.49863 18.0225 8.92703 18.3184C10.3554 18.6144 11.836 18.4625 13.1815 17.882C14.527 17.3014 15.6771 16.3182 16.4862 15.0569C17.2953 13.7955 17.7272 12.3125 17.7272 10.7954C17.7271 8.76114 16.9512 6.81021 15.5703 5.37175C14.1894 3.9333 12.3165 3.12512 10.3636 3.125Z" stroke="white" stroke-width="1.5" stroke-miterlimit="10"/>
<path d="M15.8574 16.5181L21.0001 21.875" stroke="white" stroke-width="1.5" stroke-miterlimit="10" stroke-linecap="round"/>
</svg>
